<svg width="242" height="34" viewBox="0 0 242 34" fill="none" xmlns="http://www.w3.org/2000/svg">
<g clip-path="url(#clip0_1_39)">
<path d="M0 0.7323H28.2603V8.43607H10.2896V12.3955H27.3231V20.1427H10.2896V24.1891H28.4568V31.9363H0V0.7323Z" fill="white"/>
<path d="M39.5346 0.7323L45.9351 21.3053L52.4825 0.7323H63.4114L51.5454 31.9363H40.2711L28.3596 0.7323H39.5346Z" fill="white"/>
<path d="M64.5448 0.7323H92.8051V8.43607H74.8344V12.3955H91.8679V20.1427H74.8344V24.1891H93.0016V31.9363H64.5448V0.7323Z" fill="white"/>
<path d="M116.783 31.9363L105.854 12.0521V31.9363H96.3529V0.7323H109.005L119.983 20.573V0.7323H129.485V31.9363H116.783Z" fill="white"/>
<path d="M141.694 8.43607H131.059V0.7323H162.667V8.43607H151.984V31.9363H141.694V8.43607Z" fill="white"/>
<path d="M180.197 32.4949C169.268 32.4949 161.487 26.5557 161.487 16.2681C161.487 5.98056 169.266 0 180.197 0C191.127 0 198.906 5.98263 198.906 16.2681C198.906 26.5536 191.127 32.4949 180.197 32.4949ZM180.197 24.9628C184.332 24.9628 188.221 22.4245 188.221 16.2681C188.221 10.1117 184.332 7.53 180.197 7.53C176.061 7.53 172.172 10.1117 172.172 16.2681C172.172 22.4245 176.061 24.9628 180.197 24.9628Z" fill="white"/>
<path d="M238.805 8.41953L241.711 15.662L229.016 19.3318L236.98 28.5499L229.878 33.1589L221.914 23.4713L214.382 33.161L207.172 28.554L215.135 19.336L202.652 15.6682L205.557 8.42367L217.716 12.561V0.802643H226.322V12.561L238.805 8.41953Z" fill="white"/>
</g>
<defs>
<clipPath id="clip0_1_39">
<rect width="241.711" height="33.161" fill="white"/>
</clipPath>
</defs>
</svg>
